# xmcd
#
# Track frame offsets:
#	150
#	22931
#	29302
#	51586
#
# Disc length: 1108 seconds
#
# Revision: 1
# Processed by: cddbd v1.5.1PL0 Copyright (c) Steve Scherf et al.
# Submitted via: audiograbber 1.82.01
#
DISCID=2b045204
DTITLE=The Bear Quartet - I Don't Wanna
DYEAR=1900
DGENRE=
TTITLE0=I Don't Wanna
TTITLE1=Radar - 90 000
TTITLE2=Stores And Stolen Parts
TTITLE3=Blizzard
EXTD=
EXTT0=
EXTT1=
EXTT2=
EXTT3=
PLAYORDER=
